<?xml version="1.0" standalone="no"?>
<!DOCTYPE svg PUBLIC "-//W3C//DTD SVG 20010904//EN"
 "http://www.w3.org/TR/2001/REC-SVG-20010904/DTD/svg10.dtd">
<svg version="1.0" xmlns="http://www.w3.org/2000/svg"
 width="1000.000000pt" height="1506.000000pt" viewBox="0 0 1000.000000 1506.000000"
 preserveAspectRatio="xMidYMid meet">

<g transform="translate(0.000000,1506.000000) scale(0.100000,-0.100000)"
fill="#000000" stroke="none">
<path d="M4537 10887 c-9 -13 -23 -48 -32 -78 -18 -61 -30 -81 -61 -97 -18
-10 -27 -7 -55 13 -57 42 -97 57 -119 45 -11 -6 -20 -17 -20 -25 0 -8 -7 -15
-15 -15 -11 0 -12 -5 -5 -25 8 -21 7 -25 -8 -25 -10 0 -22 4 -28 10 -6 6 -21
6 -39 1 -29 -8 -29 -9 -8 -17 11 -5 39 -26 62 -46 22 -21 54 -46 72 -56 37
-21 45 -62 19 -95 -13 -16 -24 -19 -52 -13 -34 6 -75 36 -49 36 6 0 11 7 11
15 0 8 -7 15 -15 15 -8 0 -17 11 -21 24 -6 26 -43 56 -67 56 -8 0 -17 14 -20
30 -4 17 -11 30 -17 30 -13 0 -13 -27 0 -35 18 -11 11 -31 -15 -45 -17 -9 -22
-17 -15 -24 5 -5 10 -23 10 -39 0 -25 -3 -28 -23 -23 -19 4 -23 2 -22 -17 2
-26 15 -60 27 -68 11 -7 -52 -39 -76 -39 -9 0 -16 -8 -16 -19 0 -14 -6 -19
-22 -19 -13 1 -42 1 -64 0 -38 -2 -41 -4 -41 -28 0 -15 -7 -31 -15 -35 -10 -5
-14 -18 -10 -34 9 -51 -18 -23 -34 35 -15 54 -19 60 -38 54 -11 -4 -22 -11
-24 -15 -2 -5 -17 -9 -33 -9 -22 0 -29 -5 -29 -20 0 -11 -5 -20 -12 -20 -6 0
-8 -3 -5 -6 4 -4 -9 -25 -29 -47 -36 -39 -38 -54 -19 -99 4 -10 3 -18 -3 -18
-5 0 -13 11 -16 25 -4 14 -11 23 -16 20 -5 -3 -2 -21 7 -41 15 -30 15 -36 3
-44 -12 -7 -13 -15 -3 -40 9 -24 9 -36 -3 -58 -10 -19 -14 -22 -14 -10 0 10
-4 17 -9 15 -5 -1 -18 9 -30 22 -35 40 -59 37 -67 -7 -6 -34 -18 -51 -36 -52
-4 0 -5 6 -2 14 3 8 -7 18 -25 26 -17 7 -31 18 -31 26 0 7 -11 26 -25 41 -22
26 -24 26 -25 7 0 -11 -6 -29 -14 -40 -14 -19 -15 -19 -22 1 -10 28 -45 65
-61 65 -7 0 -13 5 -13 10 0 24 -18 7 -25 -22 -10 -44 -9 -40 -25 -65 -11 -17
-18 -19 -38 -12 -13 5 -29 6 -35 2 -17 -10 -47 -11 -47 -1 0 4 -4 8 -10 8 -5
0 -10 -7 -10 -15 0 -7 -6 -18 -13 -22 -8 -4 -16 -16 -20 -25 -9 -26 -23 -22
-37 11 -6 16 -18 32 -25 35 -10 4 -12 -9 -7 -57 5 -57 4 -61 -11 -48 -15 12
-17 10 -17 -15 -1 -27 -2 -27 -14 -11 -12 16 -14 14 -21 -19 -5 -28 -9 -34
-16 -23 -5 8 -9 12 -10 9 0 -3 -2 -15 -5 -27 -2 -13 1 -23 6 -23 6 0 10 -7 10
-15 0 -8 -4 -15 -10 -15 -5 0 -10 -7 -10 -16 0 -9 5 -12 12 -8 7 4 8 3 4 -4
-5 -8 -13 -9 -25 -3 -24 13 -24 15 -15 -164 3 -66 12 -172 20 -235 8 -63 14
-135 14 -160 0 -62 25 -222 45 -288 31 -101 83 -227 158 -382 75 -155 86 -192
92 -320 4 -67 15 -142 26 -165 4 -11 15 -59 23 -106 16 -97 25 -119 96 -239
27 -47 68 -119 90 -160 122 -225 223 -381 263 -403 26 -16 27 -15 27 8 0 13
-9 32 -19 42 -26 25 -38 73 -18 73 13 0 27 -19 26 -36 0 -2 17 -22 38 -42 21
-21 55 -62 77 -92 21 -30 61 -72 89 -94 27 -21 52 -47 54 -57 3 -11 10 -19 15
-19 5 0 39 -29 74 -65 36 -36 69 -65 74 -65 6 0 10 -9 10 -20 0 -24 -13 -26
-34 -5 -8 8 -24 15 -35 15 -11 0 -25 9 -31 20 -6 11 -17 20 -24 20 -18 0 -46
33 -46 53 0 9 -5 17 -11 17 -5 0 -7 -4 -4 -10 3 -6 -1 -7 -10 -4 -10 4 -15 14
-12 26 4 15 1 18 -13 13 -22 -7 -53 22 -46 42 4 9 1 13 -6 11 -15 -5 -34 12
-48 44 -10 21 -10 20 -6 -7 3 -16 -4 -67 -15 -112 -15 -61 -18 -87 -10 -102
17 -31 13 -66 -11 -97 -13 -16 -41 -63 -64 -106 -26 -52 -65 -103 -113 -153
-63 -64 -91 -84 -195 -136 -121 -62 -121 -62 -176 -142 -30 -43 -67 -93 -81
-111 -31 -37 -90 -130 -106 -167 -6 -14 -9 -37 -6 -51 4 -19 0 -26 -16 -31
-17 -4 -21 -13 -21 -50 0 -31 5 -47 15 -51 17 -6 20 -43 5 -81 -8 -22 -6 -32
18 -61 15 -19 35 -34 45 -34 40 0 34 -58 -13 -108 -16 -18 -32 -45 -35 -60 -3
-15 -12 -40 -20 -55 -8 -16 -15 -37 -15 -48 0 -12 -7 -19 -20 -19 -25 0 -25
-5 0 -33 21 -22 23 -52 5 -52 -21 0 -33 -16 -39 -52 -4 -21 -16 -62 -27 -91
-27 -76 -25 -137 7 -184 29 -42 39 -46 48 -22 5 12 14 15 35 11 25 -5 29 -3
34 21 8 45 72 202 141 346 36 76 66 139 66 142 0 2 9 23 19 47 37 79 51 119
51 142 0 12 6 28 13 34 8 6 19 29 26 50 10 34 17 41 44 46 47 9 83 -8 90 -42
6 -31 0 -175 -8 -211 -7 -28 -19 -336 -19 -492 -1 -93 4 -129 23 -190 64 -209
107 -214 166 -23 7 24 9 43 4 43 -5 0 -4 12 1 26 12 31 12 37 2 30 -5 -3 -6
14 -2 37 3 23 2 65 -2 92 -4 28 -7 133 -7 235 1 172 -11 348 -29 430 -16 67
13 115 75 126 21 4 49 13 63 21 14 8 17 12 7 9 -18 -6 -61 17 -62 32 -2 23
-20 59 -37 71 -24 16 -41 58 -31 75 5 7 35 36 68 63 64 53 68 57 192 198 97
111 145 171 168 211 17 31 17 32 -5 62 l-24 32 24 52 c46 106 83 178 91 178
13 0 11 -8 -11 -38 -25 -34 -62 -141 -53 -155 3 -5 1 -7 -4 -4 -11 7 -25 -28
-16 -37 3 -3 17 2 32 11 l26 15 -25 -20 c-35 -29 -18 -42 61 -50 82 -8 120 -8
194 1 l60 7 0 -42 c0 -31 4 -43 16 -46 20 -4 33 36 18 55 -6 6 -8 17 -4 23 3
5 0 10 -7 10 -24 1 56 39 125 60 66 20 97 21 97 2 0 -9 -122 -72 -140 -72 -6
0 -9 -4 -5 -10 3 -5 20 -1 39 10 l34 18 22 -23 c21 -22 22 -27 10 -55 -11 -27
-11 -34 4 -48 15 -15 16 -13 16 27 0 42 1 43 28 38 15 -3 34 -8 43 -12 12 -5
18 2 23 26 8 39 23 59 45 59 14 0 17 -9 15 -51 -2 -28 -10 -66 -19 -85 -9 -19
-14 -38 -11 -42 3 -5 0 -28 -5 -53 -6 -24 -12 -52 -14 -62 -2 -9 -11 -24 -19
-33 -9 -8 -16 -21 -16 -27 0 -7 -23 -43 -50 -82 -27 -38 -61 -90 -76 -115 -15
-25 -60 -95 -101 -157 -40 -62 -73 -119 -73 -127 0 -8 -3 -16 -7 -18 -5 -1
-26 -29 -48 -61 -47 -70 -47 -70 -78 -58 -19 8 -27 20 -32 53 -4 24 -13 51
-20 61 -11 16 -14 15 -37 -15 -70 -93 -188 -301 -188 -331 0 -8 -11 -26 -24
-40 -13 -14 -49 -72 -80 -130 -30 -57 -62 -110 -71 -117 -8 -7 -18 -30 -21
-51 -4 -21 -10 -36 -14 -34 -10 6 -95 -158 -144 -277 -47 -116 -110 -324 -129
-428 -18 -98 -43 -408 -33 -417 3 -4 24 11 46 32 22 22 40 35 40 30 0 -6 -9
-53 -20 -106 -41 -202 -55 -427 -51 -819 2 -201 7 -373 13 -383 13 -25 27 -14
97 75 33 42 82 91 108 109 26 18 98 81 158 139 69 67 147 132 210 172 55 36
127 90 160 122 33 32 80 76 103 99 94 90 194 274 212 387 5 30 18 118 30 195
27 180 37 220 53 207 7 -6 26 -12 42 -14 l30 -4 -27 -12 c-24 -10 -26 -14 -18
-39 7 -25 48 -116 69 -153 4 -8 16 -42 25 -75 26 -90 140 -265 173 -265 8 0
36 -7 62 -15 39 -14 50 -23 66 -58 32 -69 61 -59 80 26 3 16 24 47 45 70 22
22 40 48 40 57 0 8 7 29 16 45 9 17 20 66 25 109 4 43 12 83 16 87 5 5 49 -38
98 -96 108 -128 140 -156 330 -283 195 -130 398 -212 523 -212 74 0 73 13 -4
92 -94 98 -151 168 -206 258 -26 41 -59 89 -73 105 -150 171 -202 224 -271
276 -74 54 -83 65 -94 107 -6 25 -20 59 -32 75 -11 16 -37 77 -57 135 -20 59
-45 120 -55 135 -10 15 -16 30 -14 33 3 3 15 -10 26 -27 l20 -32 21 34 c19 31
20 34 3 41 -11 4 -12 7 -3 7 11 1 11 4 1 16 -7 8 -10 15 -6 15 3 0 -6 20 -19
44 -14 25 -25 48 -25 51 0 16 41 -19 61 -52 13 -21 31 -44 41 -51 10 -7 25
-26 33 -41 17 -35 62 -47 88 -24 9 9 17 12 17 8 0 -5 14 4 30 20 l30 29 28
-25 c15 -14 47 -37 72 -52 25 -14 76 -46 114 -71 38 -25 93 -52 122 -61 78
-23 247 -165 387 -325 66 -76 113 -110 152 -110 18 0 38 -7 45 -15 16 -19 30
-19 45 1 11 15 16 15 65 -1 43 -14 60 -16 84 -7 17 6 51 14 74 18 28 4 46 13
50 24 9 22 60 65 88 74 43 13 120 158 168 314 27 91 32 120 25 145 -5 18 -9
48 -9 69 0 41 -30 118 -64 163 -16 20 -25 48 -28 86 -3 43 -12 65 -39 101 -19
25 -41 59 -50 75 -13 24 -30 33 -107 56 -108 32 -134 54 -121 100 10 35 -1 52
-90 147 -105 111 -134 151 -133 181 1 40 9 49 44 49 19 0 48 -13 78 -35 26
-19 52 -35 58 -35 6 0 18 -7 26 -15 12 -12 20 -13 35 -5 32 16 58 12 114 -20
88 -49 234 -96 356 -114 76 -11 137 -27 182 -46 75 -34 122 -37 177 -15 20 9
59 15 87 14 51 -2 150 17 173 34 8 7 10 24 6 57 -6 46 -6 47 44 88 32 28 67
72 102 132 l52 91 -4 192 -3 192 35 3 c27 2 70 -14 180 -69 344 -169 493 -204
608 -145 49 25 54 38 41 91 -10 40 -9 56 4 99 34 104 50 182 48 234 -1 29 5
68 13 85 7 18 26 66 41 109 25 72 26 78 11 107 -26 49 -20 74 25 114 33 30 38
40 30 54 -24 40 -42 56 -103 86 -37 19 -64 39 -66 50 -5 24 22 53 56 60 38 8
82 53 82 83 0 30 -21 73 -46 95 -18 16 -57 30 -117 43 -15 4 -44 22 -64 41
-36 33 -36 35 -25 74 9 29 21 43 46 55 50 23 63 43 41 60 -14 10 -15 17 -6 34
6 11 11 31 11 43 0 12 14 37 30 56 32 36 39 73 17 91 -7 6 -41 10 -75 9 -87
-2 -93 8 -49 83 55 92 54 129 -7 196 -23 27 -48 65 -55 85 -6 20 -19 43 -29
51 -20 17 -118 58 -138 58 -8 0 -14 3 -14 8 0 4 -12 20 -26 35 -18 19 -32 26
-45 22 -31 -10 -88 14 -104 44 -13 25 -12 30 7 48 l20 21 -46 -5 c-25 -3 -46
-1 -46 4 0 5 16 24 35 43 19 19 35 38 35 43 0 6 -28 7 -68 3 -62 -6 -72 -4
-115 19 -26 15 -47 29 -47 32 0 15 73 114 90 123 23 12 35 34 43 77 5 27 2 36
-16 48 -20 13 -29 13 -77 0 -84 -23 -103 -20 -120 18 -13 27 -20 31 -43 29
-27 -3 -29 -2 -22 26 6 28 3 31 -39 52 -25 12 -48 26 -52 31 -3 5 -13 9 -22 9
-9 0 -39 15 -65 34 -27 19 -54 33 -61 30 -6 -2 -20 2 -31 10 -20 14 -20 15 -1
48 11 18 22 35 25 38 3 3 11 14 17 25 6 11 30 30 53 43 52 30 95 84 86 110 -3
11 -20 25 -38 32 -77 28 -80 48 -15 100 23 19 62 54 85 78 l43 42 0 79 c0 115
-10 124 -131 124 -52 0 -100 4 -106 10 -8 5 -13 32 -13 61 0 31 -6 61 -16 75
-9 12 -19 51 -21 86 -5 60 -4 64 36 123 22 34 41 72 41 85 0 27 -59 87 -85 87
-17 0 -26 16 -78 130 -46 102 -64 123 -141 162 -47 24 -68 29 -100 25 -22 -3
-59 -1 -81 5 -37 10 -45 8 -110 -28 -68 -38 -74 -39 -195 -46 -69 -4 -149 -9
-177 -11 -30 -3 -50 -1 -47 4 3 5 10 6 16 3 7 -4 8 -2 4 5 -11 17 21 61 43 61
10 0 33 13 51 30 26 24 29 32 21 49 -6 11 -27 25 -47 33 -20 7 -43 26 -55 45
-12 18 -30 38 -42 45 -23 12 -273 18 -254 6 7 -4 -3 -8 -21 -8 -20 0 -31 4
-27 10 3 6 -4 10 -17 10 -42 0 -63 33 -72 115 -5 39 -13 56 -37 78 -28 26 -36
28 -76 22 -54 -8 -69 3 -78 56 -4 21 -10 39 -14 39 -13 0 -66 -44 -117 -95
-27 -27 -60 -60 -74 -72 -14 -11 -47 -47 -74 -78 -57 -65 -118 -108 -149 -103
-20 3 -22 9 -24 71 -1 38 -4 71 -7 75 -4 3 -24 -11 -44 -31 -42 -41 -60 -41
-87 -1 -20 31 -40 32 -23 2 7 -13 13 -48 15 -78 1 -30 7 -56 13 -58 6 -2 15
-12 21 -23 8 -16 4 -26 -25 -55 -21 -21 -37 -31 -41 -24 -9 14 -26 2 -23 -17
2 -11 -5 -16 -22 -18 -14 0 -35 -5 -47 -9 -19 -6 -22 -4 -17 11 5 15 4 16 -5
3 -6 -8 -11 -23 -11 -33 0 -11 -14 -24 -35 -33 -23 -9 -35 -21 -35 -34 0 -11
-7 -20 -15 -20 -8 0 -15 -7 -15 -15 0 -9 -6 -12 -15 -9 -9 4 -15 0 -15 -10 0
-9 -8 -16 -19 -16 -10 0 -21 -9 -24 -19 -2 -11 -15 -21 -28 -23 -16 -2 -23
-11 -26 -32 -5 -37 -33 -73 -54 -68 -9 1 -20 -8 -27 -22 -8 -18 -16 -23 -31
-19 -27 7 -27 7 10 65 34 52 70 83 111 93 15 4 43 25 63 47 34 39 35 41 18 57
-18 16 -53 34 -84 44 -10 3 -22 23 -29 44 -17 52 -26 60 -47 40 -29 -26 -65
-35 -95 -25 -16 6 -28 14 -28 18 0 15 43 40 67 40 48 0 91 77 65 117 -11 18
-62 34 -84 28 -14 -5 -22 1 -33 29 -8 19 -15 46 -15 60 0 14 -3 27 -8 30 -7 4
-63 -6 -134 -26 -30 -9 -40 -8 -52 5 -9 9 -16 22 -16 30 0 8 -7 20 -15 27 -13
10 -15 9 -16 -11 -1 -13 -1 -30 0 -36 1 -8 -8 -12 -24 -11 -20 2 -30 12 -46
48 l-21 45 -20 -43 c-15 -31 -23 -40 -29 -30 -12 18 -11 58 1 58 6 0 10 9 10
19 0 10 7 22 16 25 12 5 14 17 9 68 -4 35 -11 73 -16 86 -21 52 -33 72 -41 72
-5 0 -6 -5 -2 -12 5 -8 2 -9 -9 -5 -10 4 -23 9 -31 13 -7 3 -20 -6 -29 -19z
m77 -128 c-3 -5 -14 -9 -24 -9 -10 0 -21 -6 -23 -12 -3 -7 -6 -3 -6 10 -1 16
5 22 19 22 14 0 20 7 21 23 l0 22 10 -23 c5 -13 7 -28 3 -33z m-154 -63 c0 -3
-4 -8 -10 -11 -5 -3 -10 -1 -10 4 0 6 5 11 10 11 6 0 10 -2 10 -4z m380 -184
c-8 -4 -16 -18 -18 -32 -7 -69 -14 -78 -42 -60 -12 8 -13 13 -2 30 6 11 12 26
12 34 0 17 27 36 50 35 13 0 13 -1 0 -7z m830 -149 c0 -13 -4 -23 -10 -23 -5
0 -10 6 -10 14 0 7 -3 29 -6 47 l-5 34 15 -25 c8 -14 15 -35 16 -47z m815 25
c6 -12 24 -26 41 -32 17 -6 29 -16 27 -23 -3 -9 4 -10 29 -2 50 14 71 12 64
-7 -5 -14 -1 -16 24 -11 l30 7 -17 -28 c-9 -15 -29 -40 -44 -57 -14 -16 -32
-41 -39 -53 -7 -16 -18 -22 -30 -19 -13 3 -16 0 -13 -14 4 -13 0 -19 -10 -19
-23 0 -30 16 -17 40 16 30 -1 24 -38 -14 l-33 -33 -40 19 c-39 19 -40 19 -66
-2 -29 -23 -55 -25 -82 -8 -15 9 -25 9 -46 0 -36 -17 -45 -15 -45 8 0 10 -7
23 -16 28 -13 7 -15 16 -9 38 5 16 7 33 6 38 -1 4 11 24 26 44 15 20 31 40 34
44 11 16 70 18 86 3 8 -8 18 -15 23 -15 13 0 40 42 33 53 -3 5 4 4 16 -3 18
-9 27 -8 47 5 13 8 24 20 24 25 0 19 25 10 35 -12z m-631 -78 c7 0 32 -17 56
-37 24 -21 51 -38 59 -38 13 0 15 -9 13 -42 -3 -36 1 -47 32 -79 40 -42 44
-58 21 -81 -19 -18 -15 -49 5 -45 11 3 11 0 0 -14 -9 -10 -16 -12 -18 -5 -5
16 -42 -6 -43 -27 -1 -9 -5 -3 -9 13 -7 28 -8 28 -9 5 -2 -25 -30 -72 -33 -54
-3 23 -6 31 -16 57 -7 16 -9 40 -6 54 5 17 3 24 -4 19 -16 -9 -23 8 -28 69 -4
44 -2 55 13 64 10 6 14 11 10 11 -4 0 -3 9 3 19 8 15 7 22 -4 28 -7 4 -13 19
-12 32 1 16 -6 26 -21 32 -16 6 -21 5 -17 -5 3 -7 -2 -13 -11 -13 -8 0 -15 6
-15 14 0 7 -10 18 -22 24 -19 8 -18 9 11 4 18 -3 39 -5 45 -5z m-94 -20 c0 -5
-2 -10 -4 -10 -3 0 -8 5 -11 10 -3 6 -1 10 4 10 6 0 11 -4 11 -10z m-1325 -20
l-20 -9 20 -1 c11 -1 30 -1 41 -1 16 2 23 -5 28 -25 9 -33 -18 -78 -41 -70
-13 5 -14 0 -9 -26 18 -88 19 -101 5 -96 -8 3 -16 19 -19 37 -5 32 -6 33 -21
15 -9 -11 -20 -39 -24 -63 -6 -37 -5 -43 8 -38 18 7 29 -14 17 -33 -5 -8 -4
-22 1 -31 5 -10 9 -45 9 -78 0 -52 -5 -71 -27 -110 -7 -12 -33 24 -28 39 3 9
-2 23 -11 31 -30 25 -36 60 -19 106 16 41 16 46 0 79 -9 20 -19 73 -22 124
l-6 89 36 36 c27 27 43 35 69 34 27 0 30 -2 13 -9z m655 -201 c0 -11 -4 -17
-10 -14 -5 3 -10 13 -10 21 0 8 5 14 10 14 6 0 10 -9 10 -21z m-627 -59 c-3
-12 -8 -19 -11 -16 -5 6 5 36 12 36 2 0 2 -9 -1 -20z m86 -36 c-6 -7 -8 -18
-4 -24 3 -5 1 -10 -4 -10 -6 0 -11 13 -11 30 0 22 4 28 15 24 12 -5 13 -10 4
-20z m-41 -17 c15 -41 16 -91 2 -82 -17 10 -37 68 -32 92 6 32 16 29 30 -10z
m59 -19 c-3 -8 -6 -5 -6 6 -1 11 2 17 5 13 3 -3 4 -12 1 -19z m493 -59 c0 -10
-7 -19 -15 -19 -15 0 -21 31 -9 43 11 10 24 -3 24 -24z m-1723 -25 c-3 -3 -12
-4 -19 -1 -8 3 -5 6 6 6 11 1 17 -2 13 -5z m2603 -123 c30 -23 60 -41 66 -41
7 0 14 -7 18 -15 12 -33 -27 -13 -131 68 -34 26 -64 44 -67 39 -3 -5 10 -16
29 -25 19 -9 35 -21 35 -27 0 -14 -6 -13 -51 13 -45 25 -49 54 -9 74 23 11 26
10 40 -16 8 -16 40 -47 70 -70z m-1593 -69 c-5 -7 7 -101 19 -151 5 -21 3 -23
-10 -12 -13 11 -16 11 -16 -3 0 -10 -4 -14 -10 -11 -6 4 -5 13 2 25 10 15 10
22 0 32 -9 9 -12 8 -12 -7 0 -16 -2 -17 -9 -6 -10 16 -6 155 5 172 3 6 12 2
21 -10 8 -12 12 -24 10 -29z m2506 -26 c11 -28 -86 -136 -121 -136 -14 0 -19
-19 -14 -48 4 -20 9 -23 31 -19 29 6 111 -25 111 -43 0 -5 -4 -10 -10 -10 -5
0 -10 -7 -10 -15 0 -23 -26 -18 -48 10 -11 14 -29 25 -40 25 -18 0 -20 -5 -17
-40 2 -22 -1 -42 -6 -45 -5 -4 -9 14 -9 39 0 25 -4 47 -10 51 -14 9 -61 -6
-59 -19 5 -27 -15 -64 -39 -76 -31 -14 -39 -13 -33 4 2 6 3 19 3 29 -1 12 4
17 14 13 9 -4 14 1 14 14 0 11 -6 20 -12 20 -9 0 -10 3 -2 8 6 4 14 19 18 35
3 15 11 27 17 27 7 0 9 -10 5 -27 l-7 -28 20 24 c13 17 17 31 11 45 -10 30 -4
42 57 101 74 71 124 94 136 61z m-2089 -68 c11 -42 8 -50 -14 -38 -11 6 -20 9
-20 8 0 -2 4 -18 9 -36 10 -34 8 -36 -39 -32 -45 3 -45 18 -2 59 23 22 42 45
42 51 0 19 18 10 24 -12z m851 -38 c3 -5 1 -10 -4 -10 -6 0 -11 5 -11 10 0 6
2 10 4 10 3 0 8 -4 11 -10z m35 1 c0 -6 -4 -13 -10 -16 -5 -3 -10 1 -10 9 0 9
5 16 10 16 6 0 10 -4 10 -9z m-260 -18 c0 -3 -6 -14 -14 -22 -8 -9 -19 -54
-25 -101 -6 -47 -14 -95 -17 -107 -11 -41 15 -25 27 17 7 21 15 39 18 38 20
-2 30 6 46 36 11 21 24 32 32 29 8 -3 24 3 36 14 31 29 57 40 92 39 24 -1 30
-5 28 -22 -3 -26 27 -37 46 -17 7 8 21 11 32 8 12 -4 19 -2 19 7 0 8 5 6 11
-5 6 -10 7 -32 3 -50 -6 -28 -5 -30 10 -18 20 17 22 23 -19 -94 -31 -93 -34
-97 -34 -57 -1 27 -6 42 -13 42 -9 0 -13 -19 -13 -61 0 -52 -3 -63 -25 -79
-25 -19 -25 -19 -28 1 -4 24 -22 15 -22 -12 0 -11 -4 -18 -9 -15 -19 12 -18
77 5 191 28 140 27 128 14 120 -11 -7 -50 -133 -50 -164 0 -12 -4 -19 -10 -16
-5 3 -10 4 -10 1 0 -2 -3 -12 -7 -22 -4 -12 -3 -15 5 -10 8 5 12 0 12 -13 0
-14 -5 -19 -15 -15 -8 4 -15 1 -15 -6 0 -7 -7 -10 -15 -6 -8 3 -15 1 -15 -5 0
-6 -7 -9 -15 -5 -9 3 -15 0 -15 -9 0 -18 -12 -19 -28 -3 -9 9 -12 7 -12 -9 0
-12 -4 -25 -10 -28 -5 -3 -10 -18 -10 -32 0 -15 -3 -24 -6 -20 -3 3 -6 37 -6
75 0 52 -4 72 -14 76 -25 10 -45 -40 -53 -131 -5 -48 -9 -76 -10 -61 -1 20 -5
26 -16 22 -8 -4 -15 -1 -15 6 0 6 -4 8 -10 5 -5 -3 -10 3 -10 14 0 11 -5 23
-12 27 -8 5 -9 -5 -5 -39 5 -38 4 -45 -8 -41 -10 4 -15 0 -15 -11 0 -24 -17
-9 -23 21 -3 18 1 29 14 37 11 7 19 22 19 34 0 35 47 132 78 161 23 21 30 39
34 80 4 40 2 52 -9 52 -7 0 -18 -12 -23 -26 -6 -14 -14 -23 -19 -20 -5 3 -11
-4 -15 -17 -11 -42 -26 4 -19 63 3 30 6 67 7 83 0 15 7 27 14 27 7 0 12 -8 10
-17 -2 -10 2 -17 8 -16 6 1 17 -9 24 -22 7 -14 17 -25 21 -25 4 0 13 27 20 60
6 33 15 57 20 54 5 -3 9 0 9 5 0 6 5 11 10 11 6 0 10 -3 10 -7z m-130 -17 c0
-3 -4 -8 -10 -11 -5 -3 -10 -1 -10 4 0 6 5 11 10 11 6 0 10 -2 10 -4z m133
-74 c-3 -23 -10 -42 -14 -42 -14 0 -11 78 4 83 17 6 16 7 10 -41z m-720 -2 c3
-15 0 -33 -9 -44 -13 -18 -14 -15 -14 34 0 54 12 59 23 10z m547 32 c0 -4 -4
-12 -9 -17 -5 -6 -14 -37 -20 -69 -6 -33 -17 -63 -24 -68 -9 -6 -9 -8 0 -8 10
0 11 -36 3 -60 -1 -3 -1 -13 0 -24 1 -10 -3 -15 -8 -12 -6 3 -13 -2 -15 -11
-3 -10 -5 7 -4 37 0 30 3 67 8 81 4 16 3 31 -3 37 -8 8 -1 25 21 58 17 26 31
51 31 56 0 4 5 8 10 8 6 0 10 -4 10 -8z m551 -26 c5 3 18 2 29 -1 23 -7 27
-59 9 -116 -6 -19 -13 -40 -15 -48 -3 -10 -8 -11 -18 -2 -11 9 -15 5 -20 -23
-4 -20 -12 -38 -18 -42 -14 -9 -2 89 14 119 6 11 8 45 5 76 -3 31 -3 50 0 43
3 -6 9 -10 14 -6z m1663 -58 c7 -27 -11 -49 -23 -29 -9 15 -3 51 9 51 4 0 10
-10 14 -22z m-2304 -54 c0 -8 -4 -14 -8 -14 -4 0 -8 9 -8 19 0 11 4 17 8 15 4
-3 8 -12 8 -20z m1754 -9 c-18 -45 -18 -48 6 -33 15 10 23 10 28 2 4 -6 18
-10 32 -9 14 1 31 -3 39 -9 11 -8 13 -8 7 2 -4 6 -3 12 3 12 6 0 8 -12 4 -30
-5 -25 -3 -29 11 -24 9 3 16 1 16 -5 0 -6 10 -21 21 -32 16 -16 18 -23 9 -29
-10 -6 -10 -9 0 -15 16 -10 -136 -155 -162 -155 -10 0 -27 5 -37 12 -15 9 -24
8 -45 -6 -47 -30 -64 7 -23 51 12 13 43 45 70 70 26 26 47 50 47 54 0 19 -36
17 -64 -4 -50 -38 -57 -40 -49 -20 5 15 4 16 -8 7 -21 -17 -63 -29 -55 -15 4
6 3 11 -2 11 -6 0 -12 7 -16 15 -3 8 -1 14 4 12 12 -3 80 63 125 122 45 59 60
65 39 16z m-1797 -61 c-3 -60 -9 -91 -20 -102 -15 -14 -17 -14 -23 3 -4 10 -2
26 5 37 15 24 5 85 -14 85 -8 0 -17 -14 -20 -31 -4 -17 -13 -54 -21 -83 -13
-48 -16 -52 -44 -51 -25 1 -30 5 -30 25 0 36 21 115 39 143 29 49 40 56 87 58
l46 2 -5 -86z m-746 -117 c-5 -12 -6 -29 -4 -37 4 -13 3 -13 -6 0 -17 23 -14
71 3 64 11 -4 12 -12 7 -27z m2196 -73 c13 -4 20 -10 17 -15 -7 -12 -44 -12
-44 0 0 5 -8 12 -17 14 -15 4 -15 5 2 6 11 0 30 -2 42 -5z m557 -72 c2 -16 6
-34 10 -40 4 -7 2 -20 -3 -29 -9 -16 -10 -16 -11 5 0 12 -4 22 -10 22 -5 0
-10 9 -10 20 0 25 -20 26 -26 2 -3 -9 -18 -25 -33 -33 -27 -16 -28 -16 -24 1
3 10 13 27 22 37 9 10 25 32 36 50 18 30 19 31 32 13 7 -10 15 -32 17 -48z
m-1924 23 c0 -2 -11 -15 -25 -29 -28 -28 -34 -17 -8 14 16 18 33 26 33 15z
m1580 -17 c0 -12 -7 -29 -15 -38 -14 -16 -13 -17 12 -13 25 3 26 2 10 -9 -10
-7 -31 -23 -45 -35 -16 -14 -28 -19 -31 -12 -2 6 3 15 10 20 8 5 10 9 5 9 -5
0 -3 6 3 14 7 8 10 26 7 42 -6 33 -1 44 25 44 13 0 19 -7 19 -22z m-275 -7
c10 -18 -15 -22 -42 -7 l-28 15 32 1 c17 0 34 -4 38 -9z m140 -1 c-3 -5 -11
-10 -16 -10 -6 0 -7 5 -4 10 3 6 11 10 16 10 6 0 7 -4 4 -10z m81 -139 c-2 -3
-29 -24 -60 -46 -31 -22 -56 -45 -56 -51 0 -11 -111 -74 -129 -74 -12 0 -6 37
8 54 11 14 11 16 -5 16 -17 0 -17 1 1 14 11 7 25 14 30 16 6 1 24 12 40 24 45
34 77 43 41 11 -16 -14 -32 -25 -36 -25 -4 0 -17 -9 -30 -20 -13 -11 -17 -20
-11 -20 16 0 71 32 71 41 0 4 10 9 23 13 12 3 38 19 56 35 18 16 39 27 47 24
8 -3 12 -8 10 -12z m114 -82 c0 -5 -4 -8 -9 -5 -11 7 -23 -19 -28 -58 -2 -24
-1 -27 12 -16 8 7 14 19 13 26 -2 7 2 13 7 12 6 0 9 -4 8 -9 -3 -9 17 -13 50
-10 18 2 22 -7 9 -24 -14 -19 -86 -69 -101 -70 -26 -2 -41 -15 -41 -36 0 -12
-10 -23 -26 -29 -39 -15 -52 1 -14 17 18 7 31 16 27 19 -3 3 -13 1 -24 -4 -23
-12 -111 -43 -139 -49 -18 -4 -21 0 -21 21 0 17 5 26 16 27 12 0 11 2 -4 8
-11 5 -26 6 -32 4 -30 -12 -9 18 30 42 l42 25 -44 -6 c-56 -9 -49 6 20 41 48
23 77 26 64 4 -4 -5 -1 -9 4 -9 6 0 11 8 11 19 0 26 23 42 78 57 59 16 92 17
92 3z m-1668 -97 c9 -4 40 -29 67 -55 l51 -49 -16 -36 c-19 -46 -20 -47 -38
-29 -10 9 -14 28 -12 46 2 19 -2 32 -10 35 -9 3 -14 -2 -14 -14 0 -17 -31 -44
-53 -45 -4 0 -18 -13 -32 -30 -19 -23 -24 -26 -25 -12 0 9 5 26 12 37 7 10 9
23 4 27 -11 11 -46 -35 -53 -69 -8 -40 -26 -22 -20 19 4 24 0 46 -15 74 -11
21 -21 39 -22 39 -2 0 -3 -16 -4 -36 -2 -50 -8 -53 -26 -13 -8 20 -15 27 -15
17 -1 -10 -8 -18 -16 -18 -8 0 -15 -9 -15 -20 0 -11 -4 -20 -9 -20 -5 0 -12
-12 -14 -27 -3 -18 -5 -10 -7 22 -1 28 -4 60 -5 72 -2 21 1 22 41 16 32 -4 44
-2 44 7 0 7 -7 10 -16 6 -10 -4 -14 -1 -12 6 3 7 29 18 59 24 30 5 61 13 69
16 37 16 77 20 102 10z m1718 -42 c0 -5 -7 -10 -16 -10 -8 0 -12 5 -9 10 3 6
10 10 16 10 5 0 9 -4 9 -10z m40 -10 c0 -5 -4 -10 -10 -10 -5 0 -10 5 -10 10
0 6 5 10 10 10 6 0 10 -4 10 -10z m-70 -24 c0 -2 -7 -7 -16 -10 -8 -3 -12 -2
-9 4 6 10 25 14 25 6z m80 -6 c0 -5 -5 -10 -11 -10 -5 0 -7 5 -4 10 3 6 8 10
11 10 2 0 4 -4 4 -10z m-2119 -23 c-1 -4 -1 -28 -1 -54 l-1 -48 -14 30 -13 30
-1 -37 c-1 -28 3 -38 14 -38 19 0 19 -14 1 -29 -10 -9 -16 -9 -21 -1 -5 8 -11
8 -21 -1 -12 -9 -14 -5 -14 25 0 20 5 36 11 36 6 0 9 7 5 15 -6 16 12 65 29
77 12 9 27 6 26 -5z m199 -23 c0 -8 -4 -12 -10 -9 -5 3 -10 10 -10 16 0 5 5 9
10 9 6 0 10 -7 10 -16z m1530 6 c0 -5 -4 -10 -10 -10 -5 0 -10 5 -10 10 0 6 5
10 10 10 6 0 10 -4 10 -10z m404 -7 c3 -10 9 -24 12 -30 4 -8 -2 -13 -16 -13
-12 0 -18 5 -15 10 14 22 -42 3 -105 -36 -40 -25 -108 -38 -129 -25 -17 11
147 92 191 96 16 1 31 5 35 9 11 11 20 7 27 -11z m-1594 -13 c27 -27 25 -54
-5 -74 -42 -28 -57 -22 -49 22 4 20 7 45 6 55 -1 23 23 22 48 -3z m2637 -15
c-4 -26 -1 -35 10 -35 10 0 7 -10 -12 -34 -15 -20 -55 -48 -103 -71 -42 -21
-81 -40 -85 -43 -14 -7 6 53 22 65 9 7 11 13 5 13 -7 0 -11 10 -10 23 1 16 7
22 23 22 13 0 23 -4 23 -9 0 -4 15 -5 33 -2 17 3 37 7 44 8 7 1 15 15 19 32 6
28 25 66 32 66 2 0 2 -16 -1 -35z m-4852 -51 c-3 -24 -11 -44 -17 -44 -6 0 -9
-13 -5 -33 4 -25 1 -34 -9 -34 -20 0 -23 71 -5 112 5 11 14 34 21 50 11 25 14
27 18 11 2 -10 1 -38 -3 -62z m1555 59 c0 -5 -5 -15 -10 -23 -8 -12 -10 -11
-10 8 0 12 5 22 10 22 6 0 10 -3 10 -7z m281 -86 c-8 -8 -11 -3 -11 19 1 25 2
27 11 11 8 -14 8 -22 0 -30z m-264 -14 c-3 -10 -5 -2 -5 17 0 19 2 27 5 18 2
-10 2 -26 0 -35z m760 41 c-3 -3 -12 -4 -19 -1 -8 3 -5 6 6 6 11 1 17 -2 13
-5z m-785 -49 c-2 -14 -6 -25 -8 -25 -2 0 -4 11 -4 25 0 14 4 25 9 25 4 0 6
-11 3 -25z m2723 -53 c27 -42 30 -55 31 -132 0 -54 6 -98 16 -120 31 -70 31
-76 -4 -78 -18 -2 -35 -7 -39 -13 -3 -5 -17 -11 -30 -13 -14 -1 -30 -6 -37
-10 -7 -4 -20 -2 -29 5 -14 12 -13 14 8 21 16 5 9 6 -18 3 -52 -6 -53 12 -2
55 l34 30 -40 -19 c-41 -20 -89 -21 -108 -2 -7 7 -3 13 14 20 22 9 11 17 -15
12 -29 -6 -96 -7 -96 -1 0 3 5 11 11 17 9 9 2 13 -26 19 l-38 7 37 22 c48 29
57 39 23 26 -15 -6 -51 -13 -80 -15 -30 -3 -61 -8 -70 -12 -10 -3 -17 -3 -17
0 0 3 33 22 73 41 39 20 79 43 87 51 12 12 10 14 -18 14 -20 0 -61 -16 -105
-41 -39 -22 -80 -41 -89 -42 -10 -1 -18 -5 -18 -9 0 -4 -7 -5 -15 -2 -11 5
-12 11 -5 25 9 15 7 18 -7 13 -11 -4 -5 7 15 25 61 58 12 64 -85 10 -60 -33
-63 -34 -63 -16 0 23 86 58 181 73 139 21 225 32 309 39 41 3 93 15 115 25 58
27 67 24 100 -28z m-1012 -159 c-7 -2 -21 -2 -30 0 -10 3 -4 5 12 5 17 0 24
-2 18 -5z m212 -23 c22 -7 67 -25 100 -40 33 -15 67 -30 75 -32 8 -3 -14 -8
-50 -12 -43 -5 -102 -24 -175 -55 -140 -61 -234 -75 -270 -41 -21 20 -22 24
-9 37 18 19 18 33 -1 33 -23 0 -18 17 8 24 18 5 19 8 8 15 -12 8 -9 11 12 16
15 4 27 11 27 17 0 5 4 7 9 3 5 -3 13 0 16 6 4 5 13 8 19 6 7 -3 19 -1 27 4 9
6 0 9 -30 9 -57 0 -44 14 15 16 25 1 47 4 50 6 9 10 129 1 169 -12z m-2120
-89 c-16 -16 -85 -42 -85 -32 0 5 17 16 38 24 44 19 60 21 47 8z m2366 -28
c16 -10 28 -22 26 -28 -2 -5 -66 -60 -142 -122 -121 -97 -147 -114 -209 -133
-94 -28 -137 -38 -161 -39 -11 0 -32 -3 -47 -7 -24 -5 -28 -3 -28 14 0 11 -7
23 -15 26 -31 11 44 74 157 131 60 30 115 55 123 55 8 0 15 4 15 10 0 6 3 9 8
8 4 -1 41 15 82 37 60 30 129 59 158 64 2 1 17 -7 33 -16z m679 -43 c11 -11
17 -26 14 -35 -4 -10 0 -15 10 -15 9 0 16 -7 16 -15 0 -9 -6 -12 -15 -9 -8 4
-15 10 -15 15 0 5 -7 9 -15 9 -8 0 -23 7 -34 16 -16 14 -17 20 -8 35 15 24 22
24 47 -1z m80 -181 c0 -14 -7 -32 -15 -39 -8 -7 -15 -27 -15 -45 0 -43 -6 -47
-47 -30 -44 18 -62 20 -45 3 31 -31 -3 -54 -48 -32 -14 6 -50 15 -80 19 l-55
7 27 -28 c22 -23 29 -25 42 -15 11 9 20 10 33 2 22 -12 9 -18 -57 -25 -25 -2
-79 -16 -120 -30 -68 -22 -93 -25 -245 -27 -133 -1 -179 2 -210 14 -22 9 -32
16 -22 16 10 1 20 8 23 16 4 9 19 15 40 15 23 0 32 4 28 13 -3 9 4 13 25 11
18 -1 29 3 28 10 -1 6 3 10 10 9 7 -2 10 4 7 12 -4 10 0 15 16 15 11 0 19 4
16 9 -7 11 17 21 52 21 14 0 34 8 45 18 16 14 42 17 181 19 88 1 163 2 165 2
2 1 -7 10 -20 21 -23 18 -23 19 -4 21 11 2 27 3 35 4 8 1 33 9 54 19 22 9 46
14 52 12 7 -3 23 3 36 14 23 18 23 18 46 -2 12 -12 22 -33 22 -49z m210 -46
c0 -38 2 -87 6 -110 6 -40 5 -43 -17 -43 -19 0 -21 -2 -9 -10 12 -8 12 -10 -5
-10 -39 0 -64 12 -58 27 5 12 -1 13 -28 8 -48 -9 -64 18 -48 80 6 25 15 45 20
45 5 0 18 9 29 20 19 19 88 59 103 60 5 0 8 -30 7 -67z m-1553 -109 c-3 -3
-12 -4 -19 -1 -8 3 -5 6 6 6 11 1 17 -2 13 -5z m1231 -110 c18 -5 20 -9 11
-20 -9 -11 -1 -24 37 -64 27 -27 55 -50 62 -50 6 0 12 -3 12 -8 0 -4 14 -22
30 -40 37 -40 38 -52 5 -52 -16 0 -39 15 -66 43 -36 36 -41 38 -34 17 4 -14
16 -40 27 -57 11 -18 17 -33 15 -33 -19 0 -40 16 -52 40 -8 15 -30 35 -49 44
-19 9 -37 20 -40 25 -5 8 -114 6 -122 -2 -3 -3 -14 -3 -24 0 -23 6 -17 23 8
23 9 0 26 8 37 17 19 15 18 15 -20 9 -24 -3 -46 -14 -56 -27 -13 -17 -28 -22
-63 -23 -25 -1 -46 -5 -46 -10 0 -5 -3 -6 -7 -3 -3 4 -13 1 -21 -6 -13 -10
-14 -9 -8 2 7 10 3 11 -15 6 -13 -5 -37 -12 -54 -16 -16 -4 -62 -19 -100 -33
-65 -23 -74 -24 -120 -12 -51 13 -71 39 -43 57 11 8 11 10 0 18 -10 6 -4 14
24 31 33 21 35 25 18 31 -15 6 -16 8 -3 8 9 1 22 7 28 15 17 20 64 28 57 9 -4
-10 -1 -13 12 -9 38 12 78 15 97 9 19 -6 18 -7 -5 -15 -15 -4 -1 -6 37 -2 45
3 62 1 65 -8 4 -10 8 -10 19 -2 21 17 177 54 196 47 10 -4 14 -2 10 4 -4 6 3
11 17 11 13 0 34 7 47 16 25 17 41 19 77 10z m1015 -24 c17 -20 11 -25 -23
-20 -17 2 -31 21 -24 32 9 14 29 9 47 -12z m73 -58 c20 -14 24 -43 8 -60 -15
-14 -18 -14 -28 -1 -6 9 -16 14 -22 12 -7 -2 -9 8 -6 27 4 30 24 39 48 22z
m-1741 -173 c7 -11 -22 -49 -37 -49 -4 0 -22 -13 -40 -30 -28 -27 -47 -35 -72
-31 -4 1 -19 -5 -32 -14 -33 -21 -30 -4 6 35 17 18 23 30 15 27 -24 -10 -29
13 -8 35 28 27 155 48 168 27z m213 -38 c42 -17 41 -26 -3 -27 -19 0 -35 3
-35 8 0 4 -7 8 -15 8 -8 0 -15 4 -15 9 0 9 21 21 30 17 3 -1 20 -8 38 -15z
m-602 -62 c3 -6 -4 -21 -17 -34 -19 -18 -32 -21 -66 -18 -24 3 -43 9 -43 14 0
10 78 47 102 48 9 1 20 -4 24 -10z m717 -5 c40 -21 97 -64 97 -74 0 -4 -11 -5
-25 -2 -14 2 -23 7 -20 10 6 6 -59 52 -73 52 -6 0 -12 7 -16 15 -7 19 -2 19
37 -1z m834 -6 c-3 -8 -6 -5 -6 6 -1 11 2 17 5 13 3 -3 4 -12 1 -19z m-1270
-33 c-4 -8 -14 -15 -23 -15 -16 0 -16 2 1 20 20 22 31 20 22 -5z m1170 -107
c-3 -8 -6 -5 -6 6 -1 11 2 17 5 13 3 -3 4 -12 1 -19z m0 -40 c-3 -8 -6 -5 -6
6 -1 11 2 17 5 13 3 -3 4 -12 1 -19z m17 -88 c4 -36 3 -67 -3 -78 -10 -16 -10
-15 -11 3 0 11 -3 49 -6 84 -7 81 11 74 20 -9z m46 -115 c0 -8 -2 -15 -4 -15
-2 0 -6 7 -10 15 -3 8 -1 15 4 15 6 0 10 -7 10 -15z m-297 -69 c17 -13 24 -46
9 -46 -4 0 -16 14 -25 30 -19 32 -13 38 16 16z m152 -85 c7 -17 6 -19 -25 -21
-41 -4 -50 -1 -44 15 4 8 10 12 15 9 5 -3 9 4 9 15 0 19 2 20 20 9 11 -7 22
-19 25 -27z m-3745 -104 c0 -2 -15 -13 -32 -26 l-33 -22 28 25 c26 24 37 31
37 23z m105 -27 c-10 -11 -25 -20 -34 -20 -10 0 -4 8 14 19 39 25 42 25 20 1z
m-104 -70 c-18 -17 -38 -30 -44 -30 -13 0 -7 6 35 36 46 32 49 29 9 -6z m1619
-51 c0 -31 -23 -54 -45 -45 -20 7 -19 56 2 85 15 23 17 23 30 6 7 -11 13 -31
13 -46z m-2276 -465 c-15 -19 -30 -34 -35 -34 -5 0 -9 -5 -9 -10 0 -6 -12 -23
-28 -38 -15 -15 -37 -40 -48 -56 -14 -20 -26 -27 -38 -23 -35 14 -17 42 84
127 36 30 69 61 73 68 5 7 12 10 18 7 5 -4 -3 -22 -17 -41z m3823 -140 c-3 -3
-12 -4 -19 -1 -8 3 -5 6 6 6 11 1 17 -2 13 -5z m-2839 -207 c-18 -42 -38 -79
-44 -81 -10 -4 -11 1 -4 20 12 30 74 143 77 140 1 -1 -12 -36 -29 -79z m129 1
c-3 -8 -6 -5 -6 6 -1 11 2 17 5 13 3 -3 4 -12 1 -19z m190 -20 c11 -13 28 -48
37 -78 26 -80 61 -135 109 -169 49 -34 77 -65 77 -85 0 -8 11 -27 23 -43 23
-27 44 -67 82 -158 10 -22 34 -67 55 -100 36 -57 64 -122 43 -100 -5 6 -36 51
-68 100 -59 90 -105 141 -158 173 -29 18 -131 160 -166 232 -20 41 -36 98 -33
113 1 4 -9 24 -23 45 -44 65 -26 123 22 70z m-210 -96 c-27 -118 -48 -235 -56
-317 -9 -84 -55 -355 -70 -415 -22 -87 -161 -432 -210 -520 -48 -88 -144 -288
-161 -337 -12 -35 -51 -120 -88 -190 -36 -71 -101 -198 -143 -283 -43 -85 -78
-149 -79 -143 0 7 58 127 129 267 121 240 215 446 205 455 -2 2 -14 -4 -26
-15 -13 -10 -7 -1 13 21 86 93 299 572 338 757 11 49 1 41 -58 -45 -27 -40
-59 -81 -71 -92 l-23 -20 11 21 c6 11 19 27 28 35 31 25 103 147 123 206 18
56 37 149 61 303 7 41 18 108 26 149 8 40 14 84 14 98 0 36 43 171 48 150 2
-10 -3 -49 -11 -85z m-1447 24 c0 -8 -7 -22 -16 -30 -32 -33 -69 -9 -38 25 20
22 54 25 54 5z m1215 -102 c-21 -25 -68 -79 -104 -119 -71 -78 -102 -121 -166
-224 -65 -105 -136 -211 -141 -211 -6 0 10 31 60 111 23 36 46 73 51 82 6 9
33 49 61 89 28 40 56 84 64 97 11 22 11 23 -6 18 -16 -6 -16 -5 1 6 11 6 63
55 115 107 52 53 97 95 99 93 2 -1 -13 -23 -34 -49z m-140 6 c3 -5 -1 -10 -9
-10 -9 0 -16 5 -16 10 0 6 4 10 9 10 6 0 13 -4 16 -10z m225 -45 c0 -16 -6
-25 -15 -25 -10 0 -15 -10 -15 -29 0 -17 -4 -33 -10 -36 -6 -4 -9 10 -8 34 1
23 7 42 15 45 7 3 13 12 13 21 0 8 5 15 10 15 6 0 10 -11 10 -25z m19 -52 c-7
-10 -15 -20 -16 -22 -2 -2 -3 5 -3 17 0 14 6 22 16 22 14 0 15 -3 3 -17z
m-355 -97 c-11 -8 -38 -17 -60 -20 l-39 -6 42 13 c23 6 45 15 49 20 4 4 12 7
18 7 6 0 1 -6 -10 -14z m635 -43 c0 -31 -2 -34 -9 -18 -12 28 -12 55 0 55 6 0
10 -17 9 -37z m-312 5 c-3 -8 -6 -5 -6 6 -1 11 2 17 5 13 3 -3 4 -12 1 -19z
m-16 -59 l-9 -34 -1 31 c-1 17 2 34 6 37 12 13 14 -1 4 -34z m336 -21 c-3 -7
-5 -2 -5 12 0 14 2 19 5 13 2 -7 2 -19 0 -25z m22 -122 c1 -54 -5 -42 -12 24
-4 36 -3 48 3 35 5 -11 9 -38 9 -59z m-395 27 c-4 -16 -13 -37 -20 -48 -16
-23 -18 -16 -5 17 5 13 12 31 15 41 9 28 17 19 10 -10z m-221 -68 c-3 -9 -8
-14 -10 -11 -3 3 -2 9 2 15 9 16 15 13 8 -4z m636 -108 c1 -10 -3 -15 -9 -12
-5 3 -9 30 -9 58 l1 52 9 -40 c4 -22 8 -48 8 -58z m-495 19 c-6 -16 -24 -23
-24 -8 0 10 22 33 27 28 2 -2 1 -11 -3 -20z m-361 -21 c-3 -9 -8 -14 -10 -11
-3 3 -2 9 2 15 9 16 15 13 8 -4z m322 -53 c-15 -16 -16 -15 -4 12 7 15 15 23
17 16 3 -7 -3 -19 -13 -28z m-227 10 c2 -7 -2 -10 -12 -6 -9 3 -16 11 -16 16
0 13 23 5 28 -10z m-148 -37 c-7 -9 -15 -13 -17 -11 -7 7 7 26 19 26 6 0 6 -6
-2 -15z m343 -18 c-27 -34 -123 -121 -123 -112 0 7 131 135 138 135 2 0 -5
-10 -15 -23z m607 -5 c0 -15 -2 -15 -10 -2 -13 20 -13 33 0 25 6 -3 10 -14 10
-23z m-124 -24 c-17 -24 -56 -32 -56 -12 0 7 8 10 20 7 15 -4 22 2 31 23 6 16
13 23 16 17 2 -7 -2 -22 -11 -35z m10 -80 c4 -7 4 -10 -1 -6 -4 4 -14 3 -22
-3 -13 -11 -19 2 -6 14 10 11 21 8 29 -5z m-442 -40 c-10 -13 -39 -46 -64 -73
-25 -28 -74 -84 -110 -124 -36 -40 -70 -82 -77 -94 -6 -12 -30 -42 -52 -66
-23 -24 -41 -49 -42 -55 0 -6 -17 -24 -37 -41 -47 -39 -37 -24 53 81 41 48 75
92 75 98 0 5 33 45 73 88 39 43 99 107 131 143 56 61 91 91 50 43z m626 -9 c0
-5 12 -28 26 -50 23 -37 26 -66 5 -43 -15 14 -53 116 -41 109 5 -3 10 -11 10
-16z m99 -219 c11 -24 11 -24 -3 -6 -9 11 -16 24 -16 30 0 12 5 7 19 -24z
m-165 -6 c3 -8 2 -12 -4 -9 -6 3 -10 10 -10 16 0 14 7 11 14 -7z m41 -74 c14
-27 23 -50 20 -50 -2 0 -16 23 -30 50 -14 28 -23 50 -20 50 2 0 16 -22 30 -50z
m-1253 -2 c-7 -7 -12 -8 -12 -2 0 6 3 14 7 17 3 4 9 5 12 2 2 -3 -1 -11 -7
-17z m808 -15 c-11 -17 -11 -17 -6 0 3 10 6 24 7 30 0 9 2 9 5 0 3 -7 0 -20
-6 -30z m350 27 c0 -12 -28 -25 -36 -17 -9 9 6 27 22 27 8 0 14 -5 14 -10z
m275 -20 c8 -16 15 -32 15 -37 0 -10 -25 27 -33 50 -10 27 1 20 18 -13z m-115
-100 c12 -16 19 -30 16 -30 -2 0 -14 14 -26 30 -12 17 -19 30 -16 30 2 0 14
-13 26 -30z m-543 -62 c-3 -8 -6 -5 -6 6 -1 11 2 17 5 13 3 -3 4 -12 1 -19z
m368 13 c3 -5 1 -12 -4 -16 -13 -8 -61 5 -61 16 0 12 57 12 65 0z m237 -38
c42 -59 50 -73 45 -73 -5 0 -62 77 -81 108 -19 31 6 7 36 -35z m-1159 -8 c-3
-9 -8 -14 -10 -11 -3 3 -2 9 2 15 9 16 15 13 8 -4z m-42 -51 c-12 -15 -21 -35
-21 -45 0 -10 -5 -21 -10 -24 -18 -11 1 48 23 73 28 30 33 28 8 -4z m1374
-169 c33 -43 64 -85 68 -94 5 -9 1 -7 -8 4 -72 91 -120 145 -129 145 -5 0 -6
3 -3 6 4 4 -7 25 -24 48 l-31 41 33 -36 c19 -20 61 -71 94 -114z m186 124 l24
-20 -30 17 c-39 24 -40 24 -28 24 6 0 21 -9 34 -21z m-1032 -123 c-9 -8 -10
-7 -5 7 3 10 7 24 7 30 1 7 3 4 6 -7 3 -10 -1 -23 -8 -30z m-628 -19 c-10 -9
-11 -8 -5 6 3 10 9 15 12 12 3 -3 0 -11 -7 -18z m229 10 c0 -2 -15 -16 -32
-33 l-33 -29 29 33 c28 30 36 37 36 29z m343 -159 c-9 -50 -25 -70 -17 -23 7
40 12 55 19 55 3 0 2 -15 -2 -32z m-473 3 c-5 -11 -15 -23 -22 -27 -7 -5 -8
-2 -3 7 21 37 44 55 25 20z m-69 -108 c-8 -15 -10 -15 -11 -2 0 17 10 32 18
25 2 -3 -1 -13 -7 -23z m1903 -32 c-2 -3 -12 3 -22 13 -16 17 -16 18 5 5 12
-7 20 -15 17 -18z m-1983 -108 c-12 -20 -14 -14 -5 12 4 9 9 14 11 11 3 -2 0
-13 -6 -23z m94 -279 c-42 -109 -45 -117 -50 -112 -3 3 11 46 32 96 20 51 38
90 40 88 2 -2 -8 -34 -22 -72z m-135 17 c0 -6 -4 -13 -10 -16 -5 -3 -10 1 -10
9 0 9 5 16 10 16 6 0 10 -4 10 -9z m33 -236 c-3 -9 -8 -14 -10 -11 -3 3 -2 9
2 15 9 16 15 13 8 -4z m94 -87 c-3 -8 -6 -5 -6 6 -1 11 2 17 5 13 3 -3 4 -12
1 -19z"/>
<path d="M4370 9974 c0 -8 5 -12 10 -9 6 4 8 11 5 16 -9 14 -15 11 -15 -7z"/>
<path d="M6929 9224 c-12 -14 -11 -16 5 -13 11 2 21 10 24 17 5 17 -13 15 -29
-4z"/>
<path d="M6755 9160 c-3 -5 -2 -10 4 -10 5 0 13 5 16 10 3 6 2 10 -4 10 -5 0
-13 -4 -16 -10z"/>
<path d="M5123 8583 c-15 -5 -18 -33 -4 -33 5 0 11 9 14 20 3 11 4 20 4 19 -1
0 -8 -3 -14 -6z"/>
<path d="M7380 7770 c0 -5 9 -10 21 -10 11 0 17 5 14 10 -3 6 -13 10 -21 10
-8 0 -14 -4 -14 -10z"/>
<path d="M7500 7471 c0 -11 5 -23 10 -26 6 -3 10 3 10 14 0 11 -4 23 -10 26
-5 3 -10 -3 -10 -14z"/>
<path d="M5467 10422 c-33 -34 -34 -68 -4 -93 12 -10 25 -18 28 -19 3 0 6 32
5 70 0 39 -1 70 -1 70 -1 0 -13 -13 -28 -28z"/>
<path d="M5537 10403 c-4 -3 -7 -11 -7 -17 0 -6 5 -5 12 2 6 6 9 14 7 17 -3 3
-9 2 -12 -2z"/>
<path d="M5386 10277 c-9 -19 -16 -45 -16 -56 0 -39 37 -7 43 36 6 52 -7 61
-27 20z"/>
<path d="M3439 10178 c-20 -37 -29 -87 -14 -82 13 6 45 67 45 89 0 22 -18 18
-31 -7z"/>
<path d="M670 9653 c0 -10 4 -33 9 -51 6 -20 6 -30 0 -27 -12 8 -11 -2 2 -26
5 -11 14 -17 19 -14 6 3 7 0 4 -8 -10 -27 62 -140 190 -296 34 -41 88 -118
121 -172 33 -53 83 -135 112 -181 28 -45 62 -103 76 -128 69 -127 110 -197
131 -224 13 -17 26 -42 31 -56 22 -75 245 -479 245 -444 0 18 -33 109 -57 156
-26 52 -52 121 -59 158 -3 13 -9 27 -14 30 -5 3 -13 26 -19 50 -5 25 -15 46
-20 48 -6 2 -11 10 -11 18 0 9 -4 12 -10 9 -6 -3 -7 1 -4 10 4 8 2 21 -4 28
-10 12 -23 130 -22 197 2 64 -10 120 -25 120 -11 0 -13 12 -9 58 3 31 10 61
15 67 19 19 10 75 -16 97 -14 12 -25 29 -25 37 0 10 17 -2 45 -31 l45 -47 0
-89 0 -89 67 -134 c65 -132 100 -189 114 -189 4 0 10 18 14 40 4 22 10 38 13
36 4 -2 8 12 10 32 1 21 7 39 12 40 6 2 10 24 10 48 0 40 -2 44 -25 44 -14 0
-25 6 -25 13 0 8 -4 7 -11 -3 -9 -12 -9 -11 -4 5 16 45 18 58 7 51 -6 -3 -14
7 -20 26 -12 42 -13 78 -2 78 14 0 70 -51 70 -64 0 -7 11 -35 25 -62 32 -63
35 -161 6 -217 -30 -58 -33 -82 -13 -99 33 -29 42 -30 40 -6 -1 23 47 134 63
144 5 3 9 18 9 35 0 16 5 29 10 29 6 0 10 7 10 16 0 8 -4 13 -8 10 -5 -3 -10
15 -10 39 -2 45 13 62 24 28 13 -40 28 -63 41 -63 8 0 13 7 11 15 -7 33 -209
245 -234 245 -7 0 -24 11 -38 25 -43 43 -57 29 -35 -35 10 -28 9 -34 -5 -42
-9 -5 -16 -15 -16 -21 0 -14 -46 -21 -54 -9 -2 4 -1 46 3 92 8 86 -1 121 -35
142 -7 4 -27 21 -45 37 -19 16 -77 66 -129 111 -52 45 -131 103 -175 129 -44
26 -127 77 -185 112 -58 36 -135 82 -172 102 -58 33 -68 35 -68 20z m165 -171
c0 -18 -20 -15 -23 4 -3 10 1 15 10 12 7 -3 13 -10 13 -16z m79 -90 c27 -29
31 -40 31 -93 0 -32 -3 -59 -7 -59 -5 0 -8 11 -8 23 0 13 -3 27 -7 31 -4 4 -8
22 -9 40 -1 29 -44 97 -44 70 0 -5 -7 4 -15 20 -19 35 -8 56 13 24 8 -13 29
-38 46 -56z m125 -76 l22 -23 -25 -5 c-17 -4 -26 -1 -26 8 0 7 -3 19 -6 28 -9
24 9 19 35 -8z m94 -106 c26 -38 47 -74 47 -79 0 -5 6 -11 13 -14 8 -3 26 -36
42 -74 41 -101 85 -193 93 -193 4 0 8 -68 9 -150 1 -83 0 -150 -1 -150 -2 0
-18 42 -36 93 -18 50 -45 120 -61 154 -20 41 -31 82 -34 125 -2 35 -11 77 -20
94 l-15 29 0 -29 c0 -16 7 -38 17 -48 15 -17 15 -18 -5 -18 -15 0 -22 6 -22
19 0 10 -7 24 -15 31 -8 7 -21 26 -30 42 -13 28 -13 29 2 17 15 -12 16 -12 10
5 -10 26 13 39 30 18 12 -15 13 -15 11 6 -2 12 -7 21 -11 20 -5 -2 -15 12 -22
30 -15 34 -35 43 -35 15 0 -15 -2 -16 -10 -3 -6 10 -6 16 0 18 6 2 10 11 10
19 0 9 -6 13 -15 9 -11 -4 -14 2 -12 27 2 18 -1 38 -6 45 -6 8 -5 12 5 12 7 0
35 -31 61 -70z m427 -356 c0 -8 -4 -14 -10 -14 -5 0 -10 9 -10 21 0 11 5 17
10 14 6 -3 10 -13 10 -21z"/>
<path d="M490 9519 c25 -24 61 -57 79 -74 33 -30 33 -30 26 -5 -9 33 -39 62
-100 95 l-50 28 45 -44z"/>
<path d="M1590 8891 c0 -25 6 -27 13 -6 4 8 2 17 -3 20 -6 4 -10 -3 -10 -14z"/>
<path d="M1853 8669 c5 -37 2 -44 -23 -65 -15 -13 -31 -35 -34 -49 -4 -14 -10
-25 -15 -25 -4 0 -21 -18 -36 -40 l-27 -39 41 -86 c23 -48 53 -123 67 -167 27
-84 45 -91 37 -14 -9 88 -26 166 -34 160 -5 -3 -9 15 -9 40 0 25 -5 48 -10 51
-15 9 -8 95 7 95 11 0 24 25 22 44 0 5 3 12 9 15 5 3 14 20 19 36 6 17 14 39
19 49 5 14 4 17 -4 12 -7 -4 -12 -1 -12 8 0 9 -5 16 -11 16 -8 0 -10 -14 -6
-41z"/>
<path d="M1594 8492 c-42 -28 -39 -99 17 -314 11 -42 19 -101 18 -130 -2 -60
7 -77 271 -498 57 -91 139 -223 183 -295 82 -133 107 -168 107 -148 0 22 -29
92 -54 130 -14 21 -28 53 -32 71 -4 17 -10 30 -14 27 -3 -2 -22 26 -40 63 -18
37 -36 69 -40 72 -4 3 -13 21 -18 40 -6 19 -18 53 -26 75 l-15 40 -1 -38 c0
-46 -14 -41 -30 11 -7 20 -23 60 -36 87 -13 28 -30 68 -38 90 -11 29 -15 34
-15 18 -1 -33 -18 -28 -26 7 -8 37 -51 126 -65 135 -6 3 -8 10 -6 14 3 4 -3
17 -12 27 -19 21 -42 88 -42 124 0 13 -6 31 -13 39 -21 25 -67 192 -67 241 0
25 7 56 15 70 24 42 13 65 -21 42z"/>
<path d="M2060 8235 c0 -19 5 -35 10 -35 6 0 10 16 10 35 0 19 -4 35 -10 35
-5 0 -10 -16 -10 -35z"/>
<path d="M1892 8122 c-24 -37 -24 -62 2 -97 14 -20 15 -20 22 -1 5 12 3 21 -4
24 -15 5 -16 54 -1 69 6 6 9 17 7 26 -2 9 -11 2 -26 -21z"/>
<path d="M1910 7992 c0 -4 13 -35 29 -68 33 -65 43 -46 12 22 -18 39 -41 65
-41 46z"/>
<path d="M2849 7936 c-2 -3 -76 -19 -164 -36 -88 -17 -193 -38 -234 -47 -55
-12 -80 -14 -101 -6 l-28 10 15 -36 c30 -70 73 -151 130 -238 66 -104 99 -173
108 -228 l6 -40 -15 31 c-8 18 -19 35 -25 38 -16 10 -15 -146 1 -162 6 -6 11
-36 10 -66 -1 -38 3 -58 14 -67 27 -22 36 -59 24 -95 -9 -27 -7 -48 11 -115
19 -71 20 -88 10 -128 -10 -40 -9 -55 8 -109 24 -79 8 -82 -36 -9 -37 61 -57
82 -73 72 -14 -9 -4 -25 95 -157 87 -115 115 -143 115 -112 0 10 5 14 14 11 8
-3 22 3 32 14 17 19 16 25 -14 166 -17 81 -36 149 -40 152 -16 11 -38 118 -71
348 -4 29 -4 50 0 48 4 -3 12 9 18 25 6 19 17 30 29 30 40 0 49 -21 60 -137 6
-61 27 -175 47 -254 20 -79 38 -177 41 -219 9 -130 15 -166 25 -148 27 48 33
454 9 533 -5 17 -12 50 -15 75 -3 25 -8 53 -11 63 -17 55 -36 310 -38 497 -1
206 0 216 20 235 25 24 48 65 36 65 -5 0 -11 -2 -13 -4z"/>
<path d="M2180 7905 c-11 -13 -8 -25 16 -73 20 -39 28 -70 27 -98 -1 -35 5
-49 43 -95 49 -60 84 -124 84 -156 0 -11 6 -43 14 -69 32 -106 56 -226 56
-274 0 -37 4 -50 12 -48 20 7 28 93 17 177 -6 42 -10 88 -9 103 0 16 -11 37
-27 55 -20 20 -27 36 -25 56 2 18 -6 43 -22 68 -14 21 -26 44 -27 51 0 7 -22
31 -48 53 -42 35 -47 43 -39 65 6 16 6 26 -1 28 -6 2 -11 18 -11 35 0 17 -7
38 -16 48 -8 9 -16 33 -17 53 -2 39 -8 44 -27 21z"/>
<path d="M2010 7795 c0 -8 5 -15 10 -15 6 0 10 7 10 15 0 8 -4 15 -10 15 -5 0
-10 -7 -10 -15z"/>
<path d="M2040 7745 c0 -3 12 -33 26 -68 67 -164 154 -475 154 -554 0 -23 4
-44 9 -47 4 -3 11 -18 14 -34 7 -37 73 -133 142 -207 56 -60 65 -50 14 15 -76
96 -147 291 -127 350 2 8 3 12 1 8 -9 -15 -25 -8 -19 8 3 8 -3 41 -14 72 -11
31 -20 64 -20 73 0 9 -7 22 -15 29 -9 7 -14 19 -11 27 7 16 -15 93 -26 93 -5
0 -8 8 -8 19 0 21 -28 93 -39 101 -4 3 -22 31 -40 63 -29 52 -41 66 -41 52z"/>
<path d="M2481 7454 c0 -11 3 -14 6 -6 3 7 2 16 -1 19 -3 4 -6 -2 -5 -13z"/>
<path d="M3154 7204 c8 -78 -9 -244 -35 -331 -16 -55 -46 -137 -121 -333 -27
-71 -93 -204 -116 -232 -9 -12 -32 -37 -49 -55 -30 -29 -35 -43 -59 -170 -52
-276 -52 -318 0 -311 18 3 22 14 32 88 13 98 43 202 73 250 13 22 18 43 14 62
-7 35 23 112 112 288 47 93 62 133 58 153 -4 19 2 39 19 65 64 98 113 246 88
262 -9 5 -10 14 -4 26 32 71 29 304 -4 304 -12 0 -14 -12 -8 -66z"/>
<path d="M3395 7070 c-16 -17 -16 -20 -3 -15 9 4 19 13 22 21 7 19 2 18 -19
-6z"/>
<path d="M2435 7050 c3 -5 8 -10 11 -10 2 0 4 5 4 10 0 6 -5 10 -11 10 -5 0
-7 -4 -4 -10z"/>
<path d="M2456 6873 c7 -37 44 -109 44 -86 0 24 -34 123 -43 123 -4 0 -5 -17
-1 -37z"/>
<path d="M4580 6200 c0 -5 5 -10 10 -10 6 0 10 5 10 10 0 6 -4 10 -10 10 -5 0
-10 -4 -10 -10z"/>
<path d="M4430 6135 c0 -14 5 -25 10 -25 6 0 10 11 10 25 0 14 -4 25 -10 25
-5 0 -10 -11 -10 -25z"/>
<path d="M4020 5676 c0 -14 -5 -26 -11 -26 -6 0 -9 -7 -5 -15 3 -8 1 -15 -4
-15 -6 0 -10 -6 -10 -13 0 -13 -33 -46 -60 -60 -10 -5 -8 -6 8 -3 14 3 22 -1
22 -10 0 -10 -9 -14 -27 -12 -22 2 -29 -2 -31 -19 -2 -13 -10 -23 -18 -23 -8
0 -32 -17 -53 -37 -21 -21 -54 -53 -73 -71 -29 -26 -36 -42 -42 -86 -9 -80 25
-154 67 -147 5 1 6 -3 2 -9 -3 -6 -10 -8 -15 -5 -5 3 -14 -11 -21 -30 -7 -19
-16 -35 -20 -35 -4 0 -6 -6 -6 -12 2 -19 -62 -150 -86 -178 -14 -15 -15 -19
-4 -11 20 16 23 8 4 -11 -8 -7 -17 -29 -20 -48 l-7 -35 25 40 c13 22 25 44 25
48 0 5 15 32 34 60 18 29 50 84 71 122 21 39 50 89 65 112 16 22 31 52 35 65
4 12 13 33 20 44 36 57 84 157 80 164 -3 5 0 12 6 16 8 5 10 2 5 -7 -4 -8 2
-3 13 11 11 14 19 31 16 38 -3 7 -1 11 4 8 13 -9 34 22 27 39 -3 9 -2 13 4 10
22 -14 31 39 17 99 -14 62 -37 88 -37 42z m-310 -716 c-6 -12 -14 -20 -17 -17
-2 3 1 14 8 26 7 11 15 18 17 16 2 -2 -2 -13 -8 -25z"/>
<path d="M2733 4395 c-27 -11 -35 -23 -52 -80 -12 -37 -21 -87 -21 -111 0 -39
-12 -104 -51 -274 -19 -80 -21 -193 -5 -230 9 -24 13 -61 11 -115 -2 -44 -5
-81 -5 -82 -5 -9 -2 -74 3 -79 3 -3 10 3 16 14 6 11 7 23 3 26 -4 4 6 4 21 1
19 -5 33 -2 46 9 16 15 20 15 44 -7 15 -12 27 -32 27 -44 0 -12 5 -25 10 -28
6 -3 7 -18 4 -31 -4 -14 -2 -35 4 -47 20 -43 42 -107 36 -107 -4 0 -1 -7 6
-15 10 -12 8 -17 -13 -26 -21 -10 -24 -16 -20 -48 3 -20 4 -85 4 -146 -1 -60
-1 -151 -1 -201 0 -71 -4 -95 -16 -105 -8 -7 -22 -25 -30 -41 -8 -15 -22 -28
-32 -28 -25 0 -92 -65 -92 -90 0 -12 10 -25 25 -32 19 -9 23 -16 19 -35 -7
-25 -10 -25 79 -26 56 0 59 -2 85 -38 28 -40 50 -55 63 -42 12 13 12 233 0
293 -6 30 -13 105 -16 167 -9 211 -21 358 -30 373 -3 4 2 13 10 20 18 15 21
159 5 190 -6 10 -11 120 -11 254 -2 210 -4 239 -20 263 -10 16 -23 35 -28 43
-5 8 -18 56 -29 105 -19 92 -18 135 8 284 7 38 6 58 -1 68 -14 16 -16 16 -56
-2z"/>
<path d="M4454 3453 c-5 -18 -2 -30 10 -38 9 -7 16 -17 16 -24 0 -6 5 -11 10
-11 11 0 13 24 4 58 -4 14 -12 21 -20 18 -8 -3 -11 0 -7 10 3 7 2 14 -1 14 -3
0 -9 -12 -12 -27z"/>
<path d="M4553 2858 c-6 -23 -17 -81 -24 -128 -6 -47 -18 -103 -26 -125 -8
-22 -16 -67 -18 -100 -3 -33 -7 -94 -10 -135 -3 -41 -7 -181 -10 -310 -3 -129
-10 -282 -16 -340 -25 -262 -27 -666 -4 -805 9 -53 6 -337 -4 -369 -5 -17 -12
-60 -16 -95 -4 -41 -14 -74 -26 -89 -10 -14 -19 -30 -19 -37 0 -6 -8 -19 -18
-28 -22 -20 -92 -13 -92 10 0 8 -7 30 -16 48 -32 69 -145 49 -217 -38 -20 -25
-37 -50 -37 -56 0 -18 -58 -38 -123 -41 -5 0 -5 -5 -2 -10 4 -6 15 -8 26 -5
11 4 19 2 19 -4 0 -15 -67 -14 -73 2 -3 9 -9 9 -26 0 -11 -7 -30 -13 -41 -13
-11 0 -20 -4 -20 -9 0 -5 -8 -11 -17 -15 -10 -3 -25 -10 -33 -15 -8 -5 -24
-13 -35 -16 -13 -5 -15 -9 -7 -12 31 -12 5 -18 -78 -18 -50 0 -90 3 -90 7 0
13 -214 8 -222 -5 -5 -8 -12 -6 -23 8 -14 19 -16 19 -29 3 -14 -19 -56 -25
-56 -8 0 5 8 13 17 19 10 5 16 11 13 13 -3 2 -17 12 -32 21 -18 11 -25 22 -21
36 2 10 0 22 -6 25 -6 4 -11 16 -11 26 0 11 -9 24 -20 30 -11 6 -22 21 -26 35
-13 52 -60 68 -173 58 -66 -6 -72 -8 -93 -40 -13 -19 -40 -43 -60 -54 -21 -11
-38 -26 -38 -33 0 -15 -21 -26 -51 -26 -10 0 -19 -4 -19 -9 0 -6 -13 -6 -31 1
-36 13 -238 15 -286 4 -18 -5 -33 -15 -33 -22 0 -8 -7 -14 -16 -14 -13 0 -14
-3 -4 -15 10 -12 8 -16 -14 -25 -30 -11 -34 -26 -8 -33 11 -3 7 -5 -10 -6 -25
-1 -26 -3 -15 -24 7 -12 22 -35 33 -50 l22 -27 285 0 c219 0 287 3 291 13 5 9
7 9 12 -1 4 -9 9 -10 19 -2 7 6 51 13 97 16 45 2 110 8 143 13 33 4 62 4 63
-1 2 -4 21 -11 43 -14 21 -4 39 -10 39 -15 0 -5 294 -9 666 -9 629 0 665 1
660 18 -23 81 -36 1640 -18 2177 11 308 5 638 -11 678 l-12 29 -12 -44z"/>
<path d="M1325 1790 c-5 -9 -14 -289 -29 -945 -7 -282 -15 -568 -21 -717 l-5
-128 229 0 c199 0 230 2 235 16 8 21 8 59 -1 68 -15 14 -13 46 3 46 13 0 12 5
-6 27 -15 19 -19 35 -15 54 4 15 1 47 -6 71 -7 23 -12 47 -11 51 11 45 -13
158 -32 151 -8 -3 -12 11 -14 43 -2 50 -31 145 -42 138 -3 -2 -4 12 -2 32 3
20 0 38 -7 42 -6 4 -16 35 -21 69 -6 34 -15 74 -20 88 -6 15 -8 35 -5 44 3 10
-5 51 -19 91 -13 41 -27 107 -31 147 -4 39 -11 75 -16 78 -6 3 -7 14 -4 24 6
19 -18 50 -40 50 -14 0 -27 37 -15 45 4 3 11 -2 14 -11 10 -26 21 -7 22 36 0
30 -5 41 -22 51 -19 10 -35 40 -38 74 -1 6 -7 20 -13 31 -7 12 -12 38 -11 59
1 21 -4 40 -12 45 -8 5 -13 29 -14 61 0 52 -18 90 -31 69z"/>
<path d="M65 270 c-3 -5 -1 -10 4 -10 6 0 11 5 11 10 0 6 -2 10 -4 10 -3 0 -8
-4 -11 -10z"/>
<path d="M7 231 c-4 -19 -7 -78 -7 -132 l0 -99 150 0 c93 0 150 4 150 10 0 6
10 10 23 11 12 0 16 3 10 6 -7 2 -13 13 -13 24 0 14 -10 20 -40 25 -29 5 -40
11 -40 24 0 14 -12 18 -56 23 -57 6 -80 16 -56 24 11 4 10 9 -2 22 -9 9 -28
31 -42 49 -24 30 -27 31 -39 15 -13 -17 -14 -16 -23 6 -9 24 -9 24 -15 -8z
m87 -94 c7 -6 6 -7 -4 -4 -8 2 -16 16 -17 33 -1 25 0 26 4 4 3 -14 10 -29 17
-33z"/>
<path d="M2005 101 c-23 -5 -31 -13 -36 -40 -12 -59 -8 -61 111 -61 77 0 110
4 114 13 5 9 7 9 12 0 7 -15 54 -17 54 -3 0 6 -4 10 -10 10 -5 0 -10 8 -10 17
0 13 -3 14 -12 5 -17 -17 -28 -15 -28 7 0 25 -18 37 -33 22 -8 -8 -8 -14 1
-23 14 -14 16 -28 3 -28 -5 0 -16 15 -25 34 -13 28 -20 32 -41 28 -18 -3 -25
0 -25 12 0 17 -20 19 -75 7z m55 -21 c0 -5 -13 -10 -30 -10 -16 0 -30 5 -30
10 0 6 14 10 30 10 17 0 30 -4 30 -10z"/>
<path d="M1920 49 c0 -5 9 -9 20 -9 11 0 20 4 20 8 0 4 -9 8 -20 9 -11 1 -20
-2 -20 -8z"/>
<path d="M1891 34 c0 -11 3 -14 6 -6 3 7 2 16 -1 19 -3 4 -6 -2 -5 -13z"/>
<path d="M375 19 c-11 -16 -1 -19 13 -3 7 8 8 14 3 14 -5 0 -13 -5 -16 -11z"/>
<path d="M1923 17 c5 -15 37 -22 37 -9 0 5 -9 12 -21 15 -13 3 -19 1 -16 -6z"/>
</g>
</svg>
