<svg xmlns="http://www.w3.org/2000/svg" viewBox="0 0 60 60" version="1.0">
  <path style="stroke-width:1pt;fill:#333" transform="translate(-3.436 11.998) scale(3.9948)" d="M12.964 8.613V.509h-.814a.676.676 0 0 1-.492-.193.694.694 0 0 1-.194-.504c0-.2.065-.361.194-.486a.676.676 0 0 1 .492-.194h1.646c.27 0 .475.07.615.211.141.14.211.346.211.615v9.194c0 .273-.072.48-.216.62-.141.145-.344.218-.61.218H12.15a.653.653 0 0 1-.492-.2.687.687 0 0 1-.194-.498c0-.199.065-.363.194-.492a.688.688 0 0 1 .492-.187h.814zm-7.33-2.344 1.594-1.717L6.26 3.51A70.05 70.05 0 0 1 5.785 3a1.333 1.333 0 0 1-.181-.275.75.75 0 0 1-.065-.316c0-.281.092-.514.276-.698s.39-.275.62-.275c.224 0 .4.031.528.094.13.062.262.183.399.363l.996 1.248.996-1.248c.144-.18.28-.3.404-.363s.299-.094.522-.094c.23 0 .437.09.621.27.183.18.275.414.275.703a.75.75 0 0 1-.064.316c-.043.09-.106.182-.188.275-.078.09-.234.26-.469.51L9.49 4.552l1.593 1.717c.102.11.188.228.258.357a.858.858 0 0 1 .111.446c0 .285-.091.515-.275.691a.958.958 0 0 1-.68.258.776.776 0 0 1-.433-.111 2.428 2.428 0 0 1-.399-.37L8.36 5.994 7.052 7.54a2.094 2.094 0 0 1-.387.358.775.775 0 0 1-.445.123.957.957 0 0 1-.68-.258c-.183-.176-.275-.406-.275-.691 0-.168.031-.31.094-.428a2.27 2.27 0 0 1 .275-.375zM3.747.509v8.104h.82c.2 0 .362.06.487.181a.662.662 0 0 1 .193.498c0 .208-.062.376-.187.504s-.29.194-.492.194H2.92c-.265 0-.47-.072-.615-.217-.14-.14-.211-.348-.211-.621V-.041c0-.27.07-.475.21-.616.142-.14.347-.21.616-.21h1.647c.199 0 .361.062.486.187a.643.643 0 0 1 .193.492.69.69 0 0 1-.193.51.658.658 0 0 1-.486.187h-.82z"/>
</svg>